<svg xmlns="http://www.w3.org/2000/svg" viewBox="0 0 520 150" width="520" height="150" role="img" aria-label="Branch out - where game night grows">
  <defs>
    <linearGradient id="bo-spark" gradientUnits="userSpaceOnUse" x1="40" y1="105" x2="96" y2="46">
      <stop offset="0" stop-color="#FBBF24"/><stop offset="0.5" stop-color="#EC4899"/><stop offset="1" stop-color="#7C3AED"/>
    </linearGradient>
    <linearGradient id="bo-sparkH" x1="0" y1="0" x2="1" y2="0">
      <stop offset="0" stop-color="#FBBF24"/><stop offset="0.5" stop-color="#EC4899"/><stop offset="1" stop-color="#7C3AED"/>
    </linearGradient>
    <linearGradient id="bo-tile" x1="0" y1="0" x2="1" y2="1">
      <stop offset="0" stop-color="#161d27"/><stop offset="1" stop-color="#0f141c"/>
    </linearGradient>
    <radialGradient id="bo-glow" cx="0.5" cy="0.5" r="0.5">
      <stop offset="0" stop-color="#7C3AED" stop-opacity="0.28"/><stop offset="1" stop-color="#7C3AED" stop-opacity="0"/>
    </radialGradient>
  </defs>
  <rect x="0.5" y="0.5" width="519" height="149" rx="18" fill="#0d1117" stroke="#1b2129"/>
  <circle cx="68" cy="75" r="60" fill="url(#bo-glow)"/>
  <rect x="26" y="33" width="84" height="84" rx="20" fill="url(#bo-tile)" stroke="#262e39"/>
  <g stroke-linecap="round" fill="none" stroke="url(#bo-spark)">
    <g stroke-width="7" opacity="0.16">
      <path d="M68 100 L68 80"/>
      <path d="M68 80 L42 58"/> <path d="M68 80 L55 48"/> <path d="M68 80 L68 44"/> <path d="M68 80 L81 48"/> <path d="M68 80 L94 58"/>
    </g>
    <g stroke-width="3.4">
      <path d="M68 100 L68 80"/>
      <path d="M68 80 L42 58"/> <path d="M68 80 L55 48"/> <path d="M68 80 L68 44"/> <path d="M68 80 L81 48"/> <path d="M68 80 L94 58"/>
    </g>
  </g>
  <g opacity="0.20">
    <circle cx="42" cy="58" r="9" fill="#A78BFA"/> <circle cx="55" cy="48" r="9" fill="#F472B6"/>
    <circle cx="68" cy="44" r="9" fill="#FDE047"/> <circle cx="81" cy="48" r="9" fill="#4ADE80"/> <circle cx="94" cy="58" r="9" fill="#22D3EE"/>
  </g>
  <circle cx="42" cy="58" r="5" fill="#A78BFA"/> <circle cx="55" cy="48" r="5" fill="#F472B6"/>
  <circle cx="68" cy="44" r="5" fill="#FDE047"/> <circle cx="81" cy="48" r="5" fill="#4ADE80"/> <circle cx="94" cy="58" r="5" fill="#22D3EE"/>
  <circle cx="68" cy="100" r="6.5" fill="#d2a463"/>
  <text x="130" y="80" font-family="-apple-system, BlinkMacSystemFont, 'Segoe UI', Helvetica, Arial, sans-serif" font-size="44" font-weight="700" letter-spacing="-0.5" fill="#e6edf3">Branch <tspan fill="url(#bo-sparkH)">out</tspan></text>
  <rect x="132" y="93" width="150" height="2.5" rx="1.25" fill="url(#bo-sparkH)" opacity="0.85"/>
  <text x="133" y="116" font-family="-apple-system, BlinkMacSystemFont, 'Segoe UI', Helvetica, Arial, sans-serif" font-size="13.5" font-weight="500" letter-spacing="0.2" fill="#7d8896">where game night grows</text>
</svg>
